# File created by Blade
# Date/Time:  Wed Jan 21 15:23:53 2015
#---------------------------------------------------------
:version 1.10
:name HOM
:units
  mass 1.0
  length 1.000000
  angle deg
:documentation
     Acclaim Skeleton File
:root
   axis xyz
   order TX TY TZ RX RY RZ
   position 0.000000 0.000000 0.000000
   orientation 0 0 0
:bonedata
   begin
      id 1
      name Spine_dum
      direction 0.000000 1.000000 0.000000
      length 7.067664
      axis 0.0 0.0 0.0 xyz
   end
   begin
      id 2
      name LeftUpLeg_dum
      direction 1.000000 0.000000 0.000000
      length 4.013002
      axis 0.0 0.0 0.0 xyz
   end
   begin
      id 3
      name RightUpLeg_dum
      direction -1.000000 0.000000 0.000000
      length 4.013002
      axis 0.0 0.0 0.0 xyz
   end
   begin
      id 4
      name Spine
      direction 0.000000 1.000000 0.000000
      length 0.000000
      axis 0.0 0.0 0.0 xyz
      dof rx ry rz
   end
   begin
      id 5
      name Spine_dum1
      direction 0.000000 1.000000 0.000000
      length 15.039886
      axis 0.0 0.0 0.0 xyz
   end
   begin
      id 6
      name Spine_dum2
      direction 0.000000 1.000000 0.000000
      length 10.530368
      axis 0.0 0.0 0.0 xyz
   end
   begin
      id 7
      name Spine_dum3
      direction 0.000000 1.000000 0.000000
      length 10.530368
      axis 0.0 0.0 0.0 xyz
   end
   begin
      id 8
      name Head
      direction 0.000000 1.000000 0.000000
      length 4.527550
      axis 0.0 0.0 0.0 xyz
      dof rx ry rz
   end
   begin
      id 9
      name LeftShoulder
      direction 1.000000 0.000000 0.000000
      length 7.028855
      axis 0.0 0.0 -90.0 xyz
      dof rx ry rz
   end
   begin
      id 10
      name LeftArm
      direction 1.000000 0.000000 0.000000
      length 10.797705
      axis 0.0 0.0 -90.0 xyz
      dof rx ry rz
   end
   begin
      id 11
      name LeftForeArm
      direction 1.000000 0.000000 0.000000
      length 7.907442
      axis 0.0 0.0 -90.0 xyz
      dof ry rz rx
   end
   begin
      id 12
      name LeftHand
      direction 0.000000 0.000000 0.000000
      length 0.000000
      axis 0.0 0.0 -90.0 xyz
      dof rx ry rz
   end
   begin
      id 13
      name LeftHand_dum1
      direction 0.000000 0.000000 0.000000
      length 0.000000
      axis 0.0 0.0 -90.0 xyz
   end
   begin
      id 14
      name LeftHand_dum2
      direction 1.000000 0.000000 0.000000
      length 3.937000
      axis 0.0 0.0 -90.0 xyz
   end
   begin
      id 15
      name LeftHandThumb1
      direction 0.000000 0.000000 1.000000
      length 3.937000
      axis 0.0 0.0 -90.0 xyz
      dof rx rz ry
   end
   begin
      id 16
      name RightShoulder
      direction -1.000000 0.000000 0.000000
      length 7.028855
      axis 0.0 0.0 90.0 xyz
      dof rx ry rz
   end
   begin
      id 17
      name RightArm
      direction -1.000000 0.000000 0.000000
      length 10.797705
      axis 0.0 0.0 90.0 xyz
      dof rx ry rz
   end
   begin
      id 18
      name RightForeArm
      direction -1.000000 0.000000 0.000000
      length 7.907442
      axis 0.0 0.0 90.0 xyz
      dof ry rz rx
   end
   begin
      id 19
      name RightHand
      direction 0.000000 0.000000 0.000000
      length 0.000000
      axis 0.0 0.0 90.0 xyz
      dof rx ry rz
   end
   begin
      id 20
      name RightHand_dum1
      direction 0.000000 0.000000 0.000000
      length 0.000000
      axis 0.0 0.0 90.0 xyz
   end
   begin
      id 21
      name RightHand_dum2
      direction -1.000000 0.000000 0.000000
      length 3.937000
      axis 0.0 0.0 90.0 xyz
   end
   begin
      id 22
      name RightHandThumb1
      direction 0.000000 0.000000 1.000000
      length 3.937000
      axis 0.0 0.0 90.0 xyz
      dof rx rz ry
   end
   begin
      id 23
      name LeftUpLeg
      direction 0.000000 -1.000000 0.000000
      length 16.899758
      axis 0.0 0.0 0.0 xyz
      dof rx ry rz
   end
   begin
      id 24
      name LeftLeg
      direction 0.000000 -1.000000 0.000000
      length 17.389183
      axis 0.0 0.0 0.0 xyz
      dof rx ry rz
   end
   begin
      id 25
      name LeftFoot
      direction 0.000000 -0.258819 0.965926
      length 4.924528
      axis 15.0 0.0 0.0 xyz
      dof rx ry rz
   end
   begin
      id 26
      name LeftToeBase
      direction 0.000000 0.000000 1.000000
      length 2.952750
      axis 0.0 0.0 0.0 xyz
      dof rx ry rz
   end
   begin
      id 27
      name RightUpLeg
      direction 0.000000 -1.000000 0.000000
      length 16.899758
      axis 0.0 0.0 0.0 xyz
      dof rx ry rz
   end
   begin
      id 28
      name RightLeg
      direction 0.000000 -1.000000 0.000000
      length 17.389183
      axis 0.0 0.0 0.0 xyz
      dof rx ry rz
   end
   begin
      id 29
      name RightFoot
      direction 0.000000 -0.258819 0.965926
      length 4.924528
      axis 15.0 0.0 0.0 xyz
      dof rx ry rz
   end
   begin
      id 30
      name RightToeBase
      direction 0.000000 0.000000 1.000000
      length 2.952750
      axis 0.0 0.0 0.0 xyz
      dof rx ry rz
   end
:hierarchy
   begin
      root Spine_dum LeftUpLeg_dum RightUpLeg_dum
      Spine_dum Spine
      LeftUpLeg_dum LeftUpLeg
      RightUpLeg_dum RightUpLeg
      Spine Spine_dum1 Spine_dum2 Spine_dum3
      Spine_dum1 Head
      Spine_dum2 LeftShoulder
      Spine_dum3 RightShoulder
      LeftShoulder LeftArm
      LeftArm LeftForeArm
      LeftForeArm LeftHand
      LeftHand LeftHand_dum1 LeftHand_dum2
      LeftHand_dum1 LeftHandThumb1
      RightShoulder RightArm
      RightArm RightForeArm
      RightForeArm RightHand
      RightHand RightHand_dum1 RightHand_dum2
      RightHand_dum1 RightHandThumb1
      LeftUpLeg LeftLeg
      LeftLeg LeftFoot
      LeftFoot LeftToeBase
      RightUpLeg RightLeg
      RightLeg RightFoot
      RightFoot RightToeBase
   end

# File created by Blade
# Date/Time:  Wed Jan 21 15:23:43 2015
# Frame Rate: 120.000 fps
#------------------------------------------------------
:FULLY-SPECIFIED
:DEGREES
1
root 20.876581 35.554425 -22.758811 -177.422684 -0.376617 -178.649680
Spine -13.793732 -1.278865 0.881177
Head 9.600539 0.580860 1.372493
LeftShoulder -13.794505 -33.870902 19.983746
LeftArm 3.104943 2.610138 -6.933399
LeftForeArm 6.961044 -0.000000 -2.681818
LeftHand -8.614690 -0.000000 -6.568727
LeftHandThumb1 -26.253704 0.000000 33.147579
RightShoulder -12.215373 -3.886526 -9.639997
RightArm 7.867813 37.590081 10.267533
RightForeArm -34.169087 -0.000000 4.255840
RightHand -6.820357 -0.000000 9.279210
RightHandThumb1 -24.326973 -0.000000 -32.862282
LeftUpLeg 6.223881 9.472730 3.012836
LeftLeg -6.238149 -0.000000 0.000000
LeftFoot -20.197831 25.180217 -14.038015
LeftToeBase 26.018526 -0.000000 -0.000000
RightUpLeg 4.538863 -9.028105 -0.652258
RightLeg -2.161410 -0.000000 0.000000
RightFoot -21.047442 -22.270723 17.053218
RightToeBase 23.799069 -0.000000 -0.000000
2
root 20.874162 35.554329 -22.760372 -177.425915 -0.372094 -178.652632
Spine -13.780470 -1.279683 0.880908
Head 9.590149 0.595516 1.370440
LeftShoulder -13.800587 -33.895248 19.992083
LeftArm 3.091930 2.644838 -6.937836
LeftForeArm 6.964516 -0.000000 -2.682997
LeftHand -8.621020 -0.000000 -6.544086
LeftHandThumb1 -26.253704 0.000000 33.147579
RightShoulder -12.208235 -3.922791 -9.639331
RightArm 7.894451 37.666769 10.263610
RightForeArm -34.184488 -0.000000 4.246190
RightHand -6.911452 0.000000 9.365835
RightHandThumb1 -24.326973 -0.000000 -32.862282
LeftUpLeg 6.232243 9.479514 3.006358
LeftLeg -6.243576 -0.000000 0.000000
LeftFoot -20.198968 25.176295 -14.049663
LeftToeBase 25.976481 -0.000000 -0.000000
RightUpLeg 4.541379 -9.015316 -0.659003
RightLeg -2.155014 -0.000000 0.000000
RightFoot -21.063731 -22.273801 17.069583
RightToeBase 23.790688 -0.000000 -0.000000
3
root 20.872966 35.554317 -22.763736 -177.421495 -0.376885 -178.652240
Spine -13.787571 -1.275472 0.874463
Head 9.595727 0.603438 1.384192
LeftShoulder -13.790683 -33.877012 19.998122
LeftArm 3.092039 2.628030 -6.952176
LeftForeArm 6.963253 -0.000000 -2.693497
LeftHand -8.623350 -0.000000 -6.516699
LeftHandThumb1 -26.253704 0.000000 33.147579
RightShoulder -12.202500 -3.920255 -9.645483
RightArm 7.874504 37.662969 10.228450
RightForeArm -34.122928 -0.000000 4.247986
RightHand -6.861936 -0.000000 9.481306
RightHandThumb1 -24.326973 -0.000000 -32.862282
LeftUpLeg 6.239710 9.480619 3.007269
LeftLeg -6.255649 -0.000000 0.000000
LeftFoot -20.184960 25.166180 -14.024641
LeftToeBase 25.976252 -0.000000 -0.000000
RightUpLeg 4.543733 -9.025123 -0.659068
RightLeg -2.156634 -0.000000 0.000000
RightFoot -21.056042 -22.273573 17.077178
RightToeBase 23.789060 -0.000000 -0.000000
4
root 20.870605 35.554078 -22.765503 -177.418916 -0.370521 -178.655550
Spine -13.784242 -1.258946 0.869653
Head 9.594059 0.589747 1.374524
LeftShoulder -13.777899 -33.869594 19.979788
LeftArm 3.103910 2.588005 -6.930066
LeftForeArm 7.122995 0.000000 -2.709156
LeftHand -8.611287 0.000000 -6.628023
LeftHandThumb1 -26.253704 0.000000 33.147579
RightShoulder -12.202378 -3.936807 -9.663411
RightArm 7.868744 37.698637 10.234008
RightForeArm -34.152460 0.000000 4.285332
RightHand -6.993842 -0.000000 9.412570
RightHandThumb1 -24.326973 -0.000000 -32.862282
LeftUpLeg 6.242797 9.477998 2.998188
LeftLeg -6.260840 -0.000000 0.000000
LeftFoot -20.184339 25.183034 -14.039019
LeftToeBase 25.941094 -0.000000 -0.000000
RightUpLeg 4.538160 -9.028663 -0.666616
RightLeg -2.147931 -0.000000 0.000000
RightFoot -21.059207 -22.267793 17.078947
RightToeBase 23.795775 -0.000000 -0.000000
5
root 20.870929 35.554381 -22.765977 -177.399873 -0.359222 -178.646003
Spine -13.804692 -1.238960 0.869404
Head 9.603119 0.573732 1.382050
LeftShoulder -13.767440 -33.869625 20.006662
LeftArm 3.078208 2.616566 -6.974020
LeftForeArm 6.932211 -0.000000 -2.696771
LeftHand -8.623923 -0.000000 -6.497086
LeftHandThumb1 -26.253704 0.000000 33.147579
RightShoulder -12.186543 -3.924291 -9.660413
RightArm 7.824736 37.683659 10.171271
RightForeArm -34.049933 -0.000000 4.293129
RightHand -6.960250 -0.000000 9.483661
RightHandThumb1 -24.326973 -0.000000 -32.862282
LeftUpLeg 6.228906 9.473934 3.004784
LeftLeg -6.263328 -0.000000 0.000000
LeftFoot -20.205730 25.189753 -14.055153
LeftToeBase 25.975028 -0.000000 -0.000000
RightUpLeg 4.545699 -8.909930 -0.649141
RightLeg -2.202025 -0.000000 0.000000
RightFoot -21.058047 -22.368238 17.111946
RightToeBase 23.737838 -0.000000 -0.000000
6
root 20.869843 35.554301 -22.768065 -177.395144 -0.382003 -178.646203
Spine -13.806550 -1.257773 0.869407
Head 9.598947 0.548966 1.360195
LeftShoulder -13.741254 -33.902126 19.992682
LeftArm 3.045618 2.629629 -6.928844
LeftForeArm 7.041246 -0.000000 -2.680236
LeftHand -8.606599 -0.000000 -6.643302
LeftHandThumb1 -26.253704 0.000000 33.147579
RightShoulder -12.178973 -3.941973 -9.675395
RightArm 7.792956 37.758103 10.169130
RightForeArm -34.071945 0.000000 4.357663
RightHand -6.971453 -0.000000 9.517844
RightHandThumb1 -24.326973 -0.000000 -32.862282
LeftUpLeg 6.226462 9.458419 3.003749
LeftLeg -6.270895 -0.000000 0.000000
LeftFoot -20.200419 25.191572 -14.053748
LeftToeBase 25.936586 -0.000000 -0.000000
RightUpLeg 4.552467 -8.908314 -0.647324
RightLeg -2.211555 -0.000000 0.000000
RightFoot -21.072254 -22.384437 17.132543
RightToeBase 23.770101 -0.000000 -0.000000
7
root 20.867007 35.553773 -22.771295 -177.403158 -0.383698 -178.648774
Spine -13.791514 -1.258544 0.869004
Head 9.594101 0.563182 1.357963
LeftShoulder -13.736874 -33.883267 19.977955
LeftArm 3.066658 2.640018 -6.921715
LeftForeArm 6.994149 -0.000000 -2.713302
LeftHand -8.616341 -0.000000 -6.624489
LeftHandThumb1 -26.253704 0.000000 33.147579
RightShoulder -12.170693 -3.932507 -9.686600
RightArm 7.781882 37.727135 10.130850
RightForeArm -34.063168 -0.000000 4.330564
RightHand -6.892089 -0.000000 9.515587
RightHandThumb1 -24.326973 -0.000000 -32.862282
LeftUpLeg 6.245461 9.440688 2.997564
LeftLeg -6.280769 -0.000000 0.000000
LeftFoot -20.204114 25.197685 -14.058626
LeftToeBase 25.954757 -0.000000 -0.000000
RightUpLeg 4.551227 -8.956466 -0.658587
RightLeg -2.182383 -0.000000 0.000000
RightFoot -21.076910 -22.346765 17.108416
RightToeBase 23.757401 -0.000000 -0.000000
8
root 20.865851 35.553979 -22.771870 -177.390407 -0.373823 -178.646572
Spine -13.801252 -1.234254 0.861973
Head 9.608182 0.547674 1.357916
LeftShoulder -13.716307 -33.877678 19.972101
LeftArm 3.069378 2.635535 -6.923608
LeftForeArm 6.968835 -0.000000 -2.725207
LeftHand -8.610733 -0.000000 -6.624477
LeftHandThumb1 -26.253704 0.000000 33.147579
RightShoulder -12.165340 -3.917854 -9.696454
RightArm 7.748372 37.715426 10.098855
RightForeArm -34.087367 -0.000000 4.338444
RightHand -6.895845 -0.000000 9.522859
RightHandThumb1 -24.326973 -0.000000 -32.862282
LeftUpLeg 6.232214 9.431311 2.995710
LeftLeg -6.274809 -0.000000 0.000000
LeftFoot -20.215629 25.217008 -14.057706
LeftToeBase 25.968676 -0.000000 -0.000000
RightUpLeg 4.542047 -8.898678 -0.654841
RightLeg -2.190011 -0.000000 0.000000
RightFoot -21.075320 -22.385488 17.126571
RightToeBase 23.786030 -0.000000 -0.000000
9
root 20.864014 35.554350 -22.774167 -177.388717 -0.378239 -178.646407
Spine -13.803626 -1.234714 0.857081
Head 9.625293 0.531688 1.365938
LeftShoulder -13.708198 -33.882357 19.968876
LeftArm 3.074027 2.617851 -6.917946
LeftForeArm 6.984975 -0.000000 -2.738486
LeftHand -8.601673 -0.000000 -6.613950
LeftHandThumb1 -26.253704 0.000000 33.147579
RightShoulder -12.158725 -3.923613 -9.705924
RightArm 7.734640 37.698340 10.090347
RightForeArm -34.146453 -0.000000 4.374226
RightHand -6.954556 -0.000000 9.503400
RightHandThumb1 -24.326973 -0.000000 -32.862282
LeftUpLeg 6.237162 9.410069 2.995115
LeftLeg -6.278950 -0.000000 0.000000
LeftFoot -20.215159 25.216828 -14.054575
LeftToeBase 25.995274 -0.000000 -0.000000
RightUpLeg 4.545587 -8.896376 -0.657890
RightLeg -2.191936 -0.000000 0.000000
RightFoot -21.079158 -22.380681 17.155890
RightToeBase 23.813747 -0.000000 -0.000000
10
root 20.861961 35.554211 -22.776040 -177.389988 -0.380813 -178.649121
Spine -13.787845 -1.224997 0.846063
Head 9.612932 0.492958 1.341382
LeftShoulder -13.726046 -33.861863 19.988710
LeftArm 3.103531 2.634353 -6.962997
LeftForeArm 6.751755 -0.000000 -2.730488
LeftHand -8.553451 -0.000000 -6.565157
LeftHandThumb1 -26.253704 0.000000 33.147579
RightShoulder -12.158196 -3.898951 -9.710002
RightArm 7.701003 37.741416 10.068726
RightForeArm -34.228121 0.000000 4.412808
RightHand -6.985965 -0.000000 9.483978
RightHandThumb1 -24.326973 -0.000000 -32.862282
LeftUpLeg 6.246861 9.378618 2.986983
LeftLeg -6.289840 -0.000000 0.000000
LeftFoot -20.225369 25.247941 -14.093291
LeftToeBase 25.952545 -0.000000 -0.000000
RightUpLeg 4.545379 -8.894778 -0.662902
RightLeg -2.184083 -0.000000 0.000000
RightFoot -21.084434 -22.402438 17.139544
RightToeBase 23.804313 -0.000000 -0.000000
11
root 20.860198 35.554485 -22.776746 -177.387322 -0.357638 -178.649444
Spine -13.782526 -1.191791 0.834359
Head 9.626171 0.491971 1.361388
LeftShoulder -13.701637 -33.883827 19.973689
LeftArm 3.093013 2.624767 -6.925202
LeftForeArm 6.952493 -0.000000 -2.740840
LeftHand -8.610608 -0.000000 -6.616760
LeftHandThumb1 -26.253704 0.000000 33.147579
RightShoulder -12.162361 -3.883537 -9.711362
RightArm 7.697782 37.724761 10.048376
RightForeArm -34.229217 -0.000000 4.385167
RightHand -6.869305 -0.000000 9.316764
RightHandThumb1 -24.326973 -0.000000 -32.862282
LeftUpLeg 6.254272 9.401106 2.982754
LeftLeg -6.300756 -0.000000 0.000000
LeftFoot -20.210622 25.248514 -14.078690
LeftToeBase 25.960256 -0.000000 -0.000000
RightUpLeg 4.533615 -8.851705 -0.665227
RightLeg -2.168692 -0.000000 0.000000
RightFoot -21.092717 -22.413624 17.154707
RightToeBase 23.781006 -0.000000 -0.000000
